<?xml version="1.0" encoding="utf-8"?>
<!-- Generator: Adobe Illustrator 23.0.2, SVG Export Plug-In . SVG Version: 6.00 Build 0)  -->
<svg version="1.1" id="图层_1" xmlns="http://www.w3.org/2000/svg" xmlns:xlink="http://www.w3.org/1999/xlink" x="0px" y="0px"
	 viewBox="0 0 1974.8 552.1" style="enable-background:new 0 0 1974.8 552.1;" xml:space="preserve">
<style type="text/css">
	.st0{fill:#D5D5D5;}
	.st1{fill:#EDEDED;}
	.st2{fill:none;stroke:#D5D5D5;stroke-miterlimit:10;}
	.st3{fill:none;stroke:#D5D5D5;stroke-miterlimit:10;stroke-dasharray:12.3781,12.3781;}
	.st4{fill:none;stroke:#D5D5D5;stroke-miterlimit:10;stroke-dasharray:12.2503,12.2503;}
	.st5{fill:none;stroke:#D5D5D5;stroke-miterlimit:10;stroke-dasharray:12.3527,12.3527;}
	.st6{fill:none;stroke:#D5D5D5;stroke-miterlimit:10;stroke-dasharray:12;}
</style>
<g>
	<path class="st0" d="M1950,27v497.1H26.8V27H1950 M1951,26H25.8v499.1H1951V26L1951,26z"/>
</g>
<g>
	<rect x="1473.8" y="89.1" class="st1" width="353.3" height="124.4"/>
	<g>
		<path class="st0" d="M1826.6,89.6v123.4h-352.3V89.6H1826.6 M1827.6,88.6h-354.3v125.4h354.3V88.6L1827.6,88.6z"/>
	</g>
</g>
<g>
	<rect x="1473.8" y="337.4" class="st1" width="353.3" height="124.6"/>
	<g>
		<path class="st0" d="M1826.6,337.9v123.6h-352.3V337.9H1826.6 M1827.6,336.9h-354.3v125.6h354.3V336.9L1827.6,336.9z"/>
	</g>
</g>
<g>
	<rect x="812.8" y="89.1" class="st1" width="539.2" height="124.4"/>
	<g>
		<path class="st0" d="M1351.5,89.6V213H813.3V89.6H1351.5 M1352.5,88.6H812.3V214h540.2V88.6L1352.5,88.6z"/>
	</g>
</g>
<g>
	<rect x="812.8" y="337.4" class="st1" width="539.2" height="124.6"/>
	<g>
		<path class="st0" d="M1351.5,337.9v123.6H813.3V337.9H1351.5 M1352.5,336.9H812.3v125.6h540.2V336.9L1352.5,336.9z"/>
	</g>
</g>
<g>
	<rect x="337.6" y="89.1" class="st1" width="350.9" height="124.4"/>
	<path class="st0" d="M687.9,89.6V213H338.1V89.6H687.9 M688.9,88.6H337.1V214h351.9V88.6L688.9,88.6z"/>
</g>
<g>
	<rect x="337.6" y="337.4" class="st1" width="350.9" height="124.6"/>
	<g>
		<path class="st0" d="M687.9,337.9v123.6H338.1V337.9H687.9 M688.9,336.9H337.1v125.6h351.9V336.9L688.9,336.9z"/>
	</g>
</g>
<g>
	<g>
		<line class="st2" x1="668" y1="218.9" x2="688.9" y2="218.9"/>
	</g>
	<g>
		<line class="st2" x1="668" y1="223.2" x2="688.9" y2="223.2"/>
	</g>
	<g>
		<line class="st2" x1="668" y1="227.4" x2="688.9" y2="227.4"/>
	</g>
	<g>
		<line class="st2" x1="668" y1="231.7" x2="688.9" y2="231.7"/>
	</g>
	<g>
		<line class="st2" x1="668" y1="236" x2="688.9" y2="236"/>
	</g>
	<g>
		<line class="st2" x1="668" y1="240.3" x2="688.9" y2="240.3"/>
	</g>
	<g>
		<line class="st2" x1="668" y1="244.5" x2="688.9" y2="244.5"/>
	</g>
	<g>
		<line class="st2" x1="668" y1="248.8" x2="688.9" y2="248.8"/>
	</g>
	<g>
		<line class="st2" x1="668" y1="253.1" x2="688.9" y2="253.1"/>
	</g>
	<g>
		<line class="st2" x1="668" y1="257.3" x2="688.9" y2="257.3"/>
	</g>
	<g>
		<line class="st2" x1="668" y1="261.6" x2="688.9" y2="261.6"/>
	</g>
	<g>
		<line class="st2" x1="668" y1="265.9" x2="688.9" y2="265.9"/>
	</g>
	<g>
		<line class="st2" x1="668" y1="270.1" x2="688.9" y2="270.1"/>
	</g>
	<g>
		<line class="st2" x1="668" y1="274.4" x2="688.9" y2="274.4"/>
	</g>
	<g>
		<line class="st2" x1="668" y1="278.7" x2="688.9" y2="278.7"/>
	</g>
	<g>
		<line class="st2" x1="668" y1="283" x2="688.9" y2="283"/>
	</g>
	<g>
		<line class="st2" x1="668" y1="287.2" x2="688.9" y2="287.2"/>
	</g>
	<g>
		<line class="st2" x1="668" y1="291.5" x2="688.9" y2="291.5"/>
	</g>
	<g>
		<line class="st2" x1="668" y1="295.8" x2="688.9" y2="295.8"/>
	</g>
	<g>
		<line class="st2" x1="668" y1="300" x2="688.9" y2="300"/>
	</g>
	<g>
		<line class="st2" x1="668" y1="304.3" x2="688.9" y2="304.3"/>
	</g>
	<g>
		<line class="st2" x1="668" y1="308.6" x2="688.9" y2="308.6"/>
	</g>
	<g>
		<line class="st2" x1="668" y1="312.9" x2="688.9" y2="312.9"/>
	</g>
	<g>
		<line class="st2" x1="668" y1="321.4" x2="688.9" y2="321.4"/>
	</g>
	<g>
		<line class="st2" x1="668" y1="317.1" x2="688.9" y2="317.1"/>
	</g>
	<g>
		<line class="st2" x1="668" y1="325.7" x2="688.9" y2="325.7"/>
	</g>
	<g>
		<line class="st2" x1="668" y1="329.9" x2="688.9" y2="329.9"/>
	</g>
	<g>
		<line class="st2" x1="668" y1="334.2" x2="688.9" y2="334.2"/>
	</g>
</g>
<g>
	<g>
		<line class="st2" x1="812.3" y1="218.9" x2="833.3" y2="218.9"/>
	</g>
	<g>
		<line class="st2" x1="812.3" y1="223.2" x2="833.3" y2="223.2"/>
	</g>
	<g>
		<line class="st2" x1="812.3" y1="227.4" x2="833.3" y2="227.4"/>
	</g>
	<g>
		<line class="st2" x1="812.3" y1="231.7" x2="833.3" y2="231.7"/>
	</g>
	<g>
		<line class="st2" x1="812.3" y1="236" x2="833.3" y2="236"/>
	</g>
	<g>
		<line class="st2" x1="812.3" y1="240.3" x2="833.3" y2="240.3"/>
	</g>
	<g>
		<line class="st2" x1="812.3" y1="244.5" x2="833.3" y2="244.5"/>
	</g>
	<g>
		<line class="st2" x1="812.3" y1="248.8" x2="833.3" y2="248.8"/>
	</g>
	<g>
		<line class="st2" x1="812.3" y1="253.1" x2="833.3" y2="253.1"/>
	</g>
	<g>
		<line class="st2" x1="812.3" y1="257.3" x2="833.3" y2="257.3"/>
	</g>
	<g>
		<line class="st2" x1="812.3" y1="261.6" x2="833.3" y2="261.6"/>
	</g>
	<g>
		<line class="st2" x1="812.3" y1="265.9" x2="833.3" y2="265.9"/>
	</g>
	<g>
		<line class="st2" x1="812.3" y1="270.1" x2="833.3" y2="270.1"/>
	</g>
	<g>
		<line class="st2" x1="812.3" y1="274.4" x2="833.3" y2="274.4"/>
	</g>
	<g>
		<line class="st2" x1="812.3" y1="278.7" x2="833.3" y2="278.7"/>
	</g>
	<g>
		<line class="st2" x1="812.3" y1="283" x2="833.3" y2="283"/>
	</g>
	<g>
		<line class="st2" x1="812.3" y1="287.2" x2="833.3" y2="287.2"/>
	</g>
	<g>
		<line class="st2" x1="812.3" y1="291.5" x2="833.3" y2="291.5"/>
	</g>
	<g>
		<line class="st2" x1="812.3" y1="295.8" x2="833.3" y2="295.8"/>
	</g>
	<g>
		<line class="st2" x1="812.3" y1="300" x2="833.3" y2="300"/>
	</g>
	<g>
		<line class="st2" x1="812.3" y1="304.3" x2="833.3" y2="304.3"/>
	</g>
	<g>
		<line class="st2" x1="812.3" y1="308.6" x2="833.3" y2="308.6"/>
	</g>
	<g>
		<line class="st2" x1="812.3" y1="312.9" x2="833.3" y2="312.9"/>
	</g>
	<g>
		<line class="st2" x1="812.3" y1="321.4" x2="833.3" y2="321.4"/>
	</g>
	<g>
		<line class="st2" x1="812.3" y1="317.1" x2="833.3" y2="317.1"/>
	</g>
	<g>
		<line class="st2" x1="812.3" y1="325.7" x2="833.3" y2="325.7"/>
	</g>
	<g>
		<line class="st2" x1="812.3" y1="329.9" x2="833.3" y2="329.9"/>
	</g>
	<g>
		<line class="st2" x1="812.3" y1="334.2" x2="833.3" y2="334.2"/>
	</g>
</g>
<g>
	<g>
		<line class="st2" x1="808.3" y1="193" x2="808.3" y2="214"/>
	</g>
	<g>
		<line class="st2" x1="804" y1="193" x2="804" y2="214"/>
	</g>
	<g>
		<line class="st2" x1="799.8" y1="193" x2="799.8" y2="214"/>
	</g>
	<g>
		<line class="st2" x1="795.5" y1="193" x2="795.5" y2="214"/>
	</g>
	<g>
		<line class="st2" x1="791.2" y1="193" x2="791.2" y2="214"/>
	</g>
	<g>
		<line class="st2" x1="786.9" y1="193" x2="786.9" y2="214"/>
	</g>
	<g>
		<line class="st2" x1="782.7" y1="193" x2="782.7" y2="214"/>
	</g>
	<g>
		<line class="st2" x1="778.4" y1="193" x2="778.4" y2="214"/>
	</g>
	<g>
		<line class="st2" x1="774.1" y1="193" x2="774.1" y2="214"/>
	</g>
	<g>
		<line class="st2" x1="769.9" y1="193" x2="769.9" y2="214"/>
	</g>
	<g>
		<line class="st2" x1="765.6" y1="193" x2="765.6" y2="214"/>
	</g>
	<g>
		<line class="st2" x1="761.3" y1="193" x2="761.3" y2="214"/>
	</g>
	<g>
		<line class="st2" x1="757.1" y1="193" x2="757.1" y2="214"/>
	</g>
	<g>
		<line class="st2" x1="752.8" y1="193" x2="752.8" y2="214"/>
	</g>
	<g>
		<line class="st2" x1="748.5" y1="193" x2="748.5" y2="214"/>
	</g>
	<g>
		<line class="st2" x1="744.2" y1="193" x2="744.2" y2="214"/>
	</g>
	<g>
		<line class="st2" x1="740" y1="193" x2="740" y2="214"/>
	</g>
	<g>
		<line class="st2" x1="735.7" y1="193" x2="735.7" y2="214"/>
	</g>
	<g>
		<line class="st2" x1="731.4" y1="193" x2="731.4" y2="214"/>
	</g>
	<g>
		<line class="st2" x1="727.2" y1="193" x2="727.2" y2="214"/>
	</g>
	<g>
		<line class="st2" x1="722.9" y1="193" x2="722.9" y2="214"/>
	</g>
	<g>
		<line class="st2" x1="718.6" y1="193" x2="718.6" y2="214"/>
	</g>
	<g>
		<line class="st2" x1="714.3" y1="193" x2="714.3" y2="214"/>
	</g>
	<g>
		<line class="st2" x1="705.8" y1="193" x2="705.8" y2="214"/>
	</g>
	<g>
		<line class="st2" x1="710.1" y1="193" x2="710.1" y2="214"/>
	</g>
	<g>
		<line class="st2" x1="701.5" y1="193" x2="701.5" y2="214"/>
	</g>
	<g>
		<line class="st2" x1="697.3" y1="193" x2="697.3" y2="214"/>
	</g>
	<g>
		<line class="st2" x1="693" y1="193" x2="693" y2="214"/>
	</g>
</g>
<g>
	<g>
		<line class="st2" x1="808.3" y1="336.9" x2="808.3" y2="357.9"/>
	</g>
	<g>
		<line class="st2" x1="804" y1="336.9" x2="804" y2="357.9"/>
	</g>
	<g>
		<line class="st2" x1="799.8" y1="336.9" x2="799.8" y2="357.9"/>
	</g>
	<g>
		<line class="st2" x1="795.5" y1="336.9" x2="795.5" y2="357.9"/>
	</g>
	<g>
		<line class="st2" x1="791.2" y1="336.9" x2="791.2" y2="357.9"/>
	</g>
	<g>
		<line class="st2" x1="786.9" y1="336.9" x2="786.9" y2="357.9"/>
	</g>
	<g>
		<line class="st2" x1="782.7" y1="336.9" x2="782.7" y2="357.9"/>
	</g>
	<g>
		<line class="st2" x1="778.4" y1="336.9" x2="778.4" y2="357.9"/>
	</g>
	<g>
		<line class="st2" x1="774.1" y1="336.9" x2="774.1" y2="357.9"/>
	</g>
	<g>
		<line class="st2" x1="769.9" y1="336.9" x2="769.9" y2="357.9"/>
	</g>
	<g>
		<line class="st2" x1="765.6" y1="336.9" x2="765.6" y2="357.9"/>
	</g>
	<g>
		<line class="st2" x1="761.3" y1="336.9" x2="761.3" y2="357.9"/>
	</g>
	<g>
		<line class="st2" x1="757.1" y1="336.9" x2="757.1" y2="357.9"/>
	</g>
	<g>
		<line class="st2" x1="752.8" y1="336.9" x2="752.8" y2="357.9"/>
	</g>
	<g>
		<line class="st2" x1="748.5" y1="336.9" x2="748.5" y2="357.9"/>
	</g>
	<g>
		<line class="st2" x1="744.2" y1="336.9" x2="744.2" y2="357.9"/>
	</g>
	<g>
		<line class="st2" x1="740" y1="336.9" x2="740" y2="357.9"/>
	</g>
	<g>
		<line class="st2" x1="735.7" y1="336.9" x2="735.7" y2="357.9"/>
	</g>
	<g>
		<line class="st2" x1="731.4" y1="336.9" x2="731.4" y2="357.9"/>
	</g>
	<g>
		<line class="st2" x1="727.2" y1="336.9" x2="727.2" y2="357.9"/>
	</g>
	<g>
		<line class="st2" x1="722.9" y1="336.9" x2="722.9" y2="357.9"/>
	</g>
	<g>
		<line class="st2" x1="718.6" y1="336.9" x2="718.6" y2="357.9"/>
	</g>
	<g>
		<line class="st2" x1="714.3" y1="336.9" x2="714.3" y2="357.9"/>
	</g>
	<g>
		<line class="st2" x1="705.8" y1="336.9" x2="705.8" y2="357.9"/>
	</g>
	<g>
		<line class="st2" x1="710.1" y1="336.9" x2="710.1" y2="357.9"/>
	</g>
	<g>
		<line class="st2" x1="701.5" y1="336.9" x2="701.5" y2="357.9"/>
	</g>
	<g>
		<line class="st2" x1="697.3" y1="336.9" x2="697.3" y2="357.9"/>
	</g>
	<g>
		<line class="st2" x1="693" y1="336.9" x2="693" y2="357.9"/>
	</g>
</g>
<g>
	<g>
		<line class="st2" x1="1469.7" y1="193" x2="1469.7" y2="214"/>
	</g>
	<g>
		<line class="st2" x1="1465.4" y1="193" x2="1465.4" y2="214"/>
	</g>
	<g>
		<line class="st2" x1="1461.2" y1="193" x2="1461.2" y2="214"/>
	</g>
	<g>
		<line class="st2" x1="1456.9" y1="193" x2="1456.9" y2="214"/>
	</g>
	<g>
		<line class="st2" x1="1452.6" y1="193" x2="1452.6" y2="214"/>
	</g>
	<g>
		<line class="st2" x1="1448.3" y1="193" x2="1448.3" y2="214"/>
	</g>
	<g>
		<line class="st2" x1="1444.1" y1="193" x2="1444.1" y2="214"/>
	</g>
	<g>
		<line class="st2" x1="1439.8" y1="193" x2="1439.8" y2="214"/>
	</g>
	<g>
		<line class="st2" x1="1435.5" y1="193" x2="1435.5" y2="214"/>
	</g>
	<g>
		<line class="st2" x1="1431.3" y1="193" x2="1431.3" y2="214"/>
	</g>
	<g>
		<line class="st2" x1="1427" y1="193" x2="1427" y2="214"/>
	</g>
	<g>
		<line class="st2" x1="1422.7" y1="193" x2="1422.7" y2="214"/>
	</g>
	<g>
		<line class="st2" x1="1418.4" y1="193" x2="1418.4" y2="214"/>
	</g>
	<g>
		<line class="st2" x1="1414.2" y1="193" x2="1414.2" y2="214"/>
	</g>
	<g>
		<line class="st2" x1="1409.9" y1="193" x2="1409.9" y2="214"/>
	</g>
	<g>
		<line class="st2" x1="1405.6" y1="193" x2="1405.6" y2="214"/>
	</g>
	<g>
		<line class="st2" x1="1401.4" y1="193" x2="1401.4" y2="214"/>
	</g>
	<g>
		<line class="st2" x1="1397.1" y1="193" x2="1397.1" y2="214"/>
	</g>
	<g>
		<line class="st2" x1="1392.8" y1="193" x2="1392.8" y2="214"/>
	</g>
	<g>
		<line class="st2" x1="1388.5" y1="193" x2="1388.5" y2="214"/>
	</g>
	<g>
		<line class="st2" x1="1384.3" y1="193" x2="1384.3" y2="214"/>
	</g>
	<g>
		<line class="st2" x1="1380" y1="193" x2="1380" y2="214"/>
	</g>
	<g>
		<line class="st2" x1="1375.7" y1="193" x2="1375.7" y2="214"/>
	</g>
	<g>
		<line class="st2" x1="1367.2" y1="193" x2="1367.2" y2="214"/>
	</g>
	<g>
		<line class="st2" x1="1371.5" y1="193" x2="1371.5" y2="214"/>
	</g>
	<g>
		<line class="st2" x1="1362.9" y1="193" x2="1362.9" y2="214"/>
	</g>
	<g>
		<line class="st2" x1="1358.7" y1="193" x2="1358.7" y2="214"/>
	</g>
	<g>
		<line class="st2" x1="1354.4" y1="193" x2="1354.4" y2="214"/>
	</g>
</g>
<g>
	<g>
		<line class="st2" x1="1469.7" y1="336.9" x2="1469.7" y2="357.9"/>
	</g>
	<g>
		<line class="st2" x1="1465.4" y1="336.9" x2="1465.4" y2="357.9"/>
	</g>
	<g>
		<line class="st2" x1="1461.2" y1="336.9" x2="1461.2" y2="357.9"/>
	</g>
	<g>
		<line class="st2" x1="1456.9" y1="336.9" x2="1456.9" y2="357.9"/>
	</g>
	<g>
		<line class="st2" x1="1452.6" y1="336.9" x2="1452.6" y2="357.9"/>
	</g>
	<g>
		<line class="st2" x1="1448.3" y1="336.9" x2="1448.3" y2="357.9"/>
	</g>
	<g>
		<line class="st2" x1="1444.1" y1="336.9" x2="1444.1" y2="357.9"/>
	</g>
	<g>
		<line class="st2" x1="1439.8" y1="336.9" x2="1439.8" y2="357.9"/>
	</g>
	<g>
		<line class="st2" x1="1435.5" y1="336.9" x2="1435.5" y2="357.9"/>
	</g>
	<g>
		<line class="st2" x1="1431.3" y1="336.9" x2="1431.3" y2="357.9"/>
	</g>
	<g>
		<line class="st2" x1="1427" y1="336.9" x2="1427" y2="357.9"/>
	</g>
	<g>
		<line class="st2" x1="1422.7" y1="336.9" x2="1422.7" y2="357.9"/>
	</g>
	<g>
		<line class="st2" x1="1418.4" y1="336.9" x2="1418.4" y2="357.9"/>
	</g>
	<g>
		<line class="st2" x1="1414.2" y1="336.9" x2="1414.2" y2="357.9"/>
	</g>
	<g>
		<line class="st2" x1="1409.9" y1="336.9" x2="1409.9" y2="357.9"/>
	</g>
	<g>
		<line class="st2" x1="1405.6" y1="336.9" x2="1405.6" y2="357.9"/>
	</g>
	<g>
		<line class="st2" x1="1401.4" y1="336.9" x2="1401.4" y2="357.9"/>
	</g>
	<g>
		<line class="st2" x1="1397.1" y1="336.9" x2="1397.1" y2="357.9"/>
	</g>
	<g>
		<line class="st2" x1="1392.8" y1="336.9" x2="1392.8" y2="357.9"/>
	</g>
	<g>
		<line class="st2" x1="1388.5" y1="336.9" x2="1388.5" y2="357.9"/>
	</g>
	<g>
		<line class="st2" x1="1384.3" y1="336.9" x2="1384.3" y2="357.9"/>
	</g>
	<g>
		<line class="st2" x1="1380" y1="336.9" x2="1380" y2="357.9"/>
	</g>
	<g>
		<line class="st2" x1="1375.7" y1="336.9" x2="1375.7" y2="357.9"/>
	</g>
	<g>
		<line class="st2" x1="1367.2" y1="336.9" x2="1367.2" y2="357.9"/>
	</g>
	<g>
		<line class="st2" x1="1371.5" y1="336.9" x2="1371.5" y2="357.9"/>
	</g>
	<g>
		<line class="st2" x1="1362.9" y1="336.9" x2="1362.9" y2="357.9"/>
	</g>
	<g>
		<line class="st2" x1="1358.7" y1="336.9" x2="1358.7" y2="357.9"/>
	</g>
	<g>
		<line class="st2" x1="1354.4" y1="336.9" x2="1354.4" y2="357.9"/>
	</g>
</g>
<g>
	<g>
		<line class="st2" x1="1329.7" y1="218.9" x2="1350.7" y2="218.9"/>
	</g>
	<g>
		<line class="st2" x1="1329.7" y1="223.2" x2="1350.7" y2="223.2"/>
	</g>
	<g>
		<line class="st2" x1="1329.7" y1="227.4" x2="1350.7" y2="227.4"/>
	</g>
	<g>
		<line class="st2" x1="1329.7" y1="231.7" x2="1350.7" y2="231.7"/>
	</g>
	<g>
		<line class="st2" x1="1329.7" y1="236" x2="1350.7" y2="236"/>
	</g>
	<g>
		<line class="st2" x1="1329.7" y1="240.3" x2="1350.7" y2="240.3"/>
	</g>
	<g>
		<line class="st2" x1="1329.7" y1="244.5" x2="1350.7" y2="244.5"/>
	</g>
	<g>
		<line class="st2" x1="1329.7" y1="248.8" x2="1350.7" y2="248.8"/>
	</g>
	<g>
		<line class="st2" x1="1329.7" y1="253.1" x2="1350.7" y2="253.1"/>
	</g>
	<g>
		<line class="st2" x1="1329.7" y1="257.3" x2="1350.7" y2="257.3"/>
	</g>
	<g>
		<line class="st2" x1="1329.7" y1="261.6" x2="1350.7" y2="261.6"/>
	</g>
	<g>
		<line class="st2" x1="1329.7" y1="265.9" x2="1350.7" y2="265.9"/>
	</g>
	<g>
		<line class="st2" x1="1329.7" y1="270.1" x2="1350.7" y2="270.1"/>
	</g>
	<g>
		<line class="st2" x1="1329.7" y1="274.4" x2="1350.7" y2="274.4"/>
	</g>
	<g>
		<line class="st2" x1="1329.7" y1="278.7" x2="1350.7" y2="278.7"/>
	</g>
	<g>
		<line class="st2" x1="1329.7" y1="283" x2="1350.7" y2="283"/>
	</g>
	<g>
		<line class="st2" x1="1329.7" y1="287.2" x2="1350.7" y2="287.2"/>
	</g>
	<g>
		<line class="st2" x1="1329.7" y1="291.5" x2="1350.7" y2="291.5"/>
	</g>
	<g>
		<line class="st2" x1="1329.7" y1="295.8" x2="1350.7" y2="295.8"/>
	</g>
	<g>
		<line class="st2" x1="1329.7" y1="300" x2="1350.7" y2="300"/>
	</g>
	<g>
		<line class="st2" x1="1329.7" y1="304.3" x2="1350.7" y2="304.3"/>
	</g>
	<g>
		<line class="st2" x1="1329.7" y1="308.6" x2="1350.7" y2="308.6"/>
	</g>
	<g>
		<line class="st2" x1="1329.7" y1="312.9" x2="1350.7" y2="312.9"/>
	</g>
	<g>
		<line class="st2" x1="1329.7" y1="321.4" x2="1350.7" y2="321.4"/>
	</g>
	<g>
		<line class="st2" x1="1329.7" y1="317.1" x2="1350.7" y2="317.1"/>
	</g>
	<g>
		<line class="st2" x1="1329.7" y1="325.7" x2="1350.7" y2="325.7"/>
	</g>
	<g>
		<line class="st2" x1="1329.7" y1="329.9" x2="1350.7" y2="329.9"/>
	</g>
	<g>
		<line class="st2" x1="1329.7" y1="334.2" x2="1350.7" y2="334.2"/>
	</g>
</g>
<g>
	<g>
		<line class="st2" x1="1474.1" y1="218.9" x2="1495.1" y2="218.9"/>
	</g>
	<g>
		<line class="st2" x1="1474.1" y1="223.2" x2="1495.1" y2="223.2"/>
	</g>
	<g>
		<line class="st2" x1="1474.1" y1="227.4" x2="1495.1" y2="227.4"/>
	</g>
	<g>
		<line class="st2" x1="1474.1" y1="231.7" x2="1495.1" y2="231.7"/>
	</g>
	<g>
		<line class="st2" x1="1474.1" y1="236" x2="1495.1" y2="236"/>
	</g>
	<g>
		<line class="st2" x1="1474.1" y1="240.3" x2="1495.1" y2="240.3"/>
	</g>
	<g>
		<line class="st2" x1="1474.1" y1="244.5" x2="1495.1" y2="244.5"/>
	</g>
	<g>
		<line class="st2" x1="1474.1" y1="248.8" x2="1495.1" y2="248.8"/>
	</g>
	<g>
		<line class="st2" x1="1474.1" y1="253.1" x2="1495.1" y2="253.1"/>
	</g>
	<g>
		<line class="st2" x1="1474.1" y1="257.3" x2="1495.1" y2="257.3"/>
	</g>
	<g>
		<line class="st2" x1="1474.1" y1="261.6" x2="1495.1" y2="261.6"/>
	</g>
	<g>
		<line class="st2" x1="1474.1" y1="265.9" x2="1495.1" y2="265.9"/>
	</g>
	<g>
		<line class="st2" x1="1474.1" y1="270.1" x2="1495.1" y2="270.1"/>
	</g>
	<g>
		<line class="st2" x1="1474.1" y1="274.4" x2="1495.1" y2="274.4"/>
	</g>
	<g>
		<line class="st2" x1="1474.1" y1="278.7" x2="1495.1" y2="278.7"/>
	</g>
	<g>
		<line class="st2" x1="1474.1" y1="283" x2="1495.1" y2="283"/>
	</g>
	<g>
		<line class="st2" x1="1474.1" y1="287.2" x2="1495.1" y2="287.2"/>
	</g>
	<g>
		<line class="st2" x1="1474.1" y1="291.5" x2="1495.1" y2="291.5"/>
	</g>
	<g>
		<line class="st2" x1="1474.1" y1="295.8" x2="1495.1" y2="295.8"/>
	</g>
	<g>
		<line class="st2" x1="1474.1" y1="300" x2="1495.1" y2="300"/>
	</g>
	<g>
		<line class="st2" x1="1474.1" y1="304.3" x2="1495.1" y2="304.3"/>
	</g>
	<g>
		<line class="st2" x1="1474.1" y1="308.6" x2="1495.1" y2="308.6"/>
	</g>
	<g>
		<line class="st2" x1="1474.1" y1="312.9" x2="1495.1" y2="312.9"/>
	</g>
	<g>
		<line class="st2" x1="1474.1" y1="321.4" x2="1495.1" y2="321.4"/>
	</g>
	<g>
		<line class="st2" x1="1474.1" y1="317.1" x2="1495.1" y2="317.1"/>
	</g>
	<g>
		<line class="st2" x1="1474.1" y1="325.7" x2="1495.1" y2="325.7"/>
	</g>
	<g>
		<line class="st2" x1="1474.1" y1="329.9" x2="1495.1" y2="329.9"/>
	</g>
	<g>
		<line class="st2" x1="1474.1" y1="334.2" x2="1495.1" y2="334.2"/>
	</g>
</g>
<g>
	<g>
		<line class="st2" x1="309.4" y1="275.5" x2="315.4" y2="275.5"/>
		<line class="st3" x1="327.8" y1="275.5" x2="643.5" y2="275.5"/>
		<line class="st2" x1="649.6" y1="275.5" x2="655.6" y2="275.5"/>
	</g>
</g>
<g>
	<g>
		<line class="st2" x1="852.7" y1="275.5" x2="858.7" y2="275.5"/>
		<line class="st4" x1="870.9" y1="275.5" x2="1305.8" y2="275.5"/>
		<line class="st2" x1="1312" y1="275.5" x2="1318" y2="275.5"/>
	</g>
</g>
<g>
	<g>
		<line class="st2" x1="1506.8" y1="275.5" x2="1512.8" y2="275.5"/>
		<line class="st5" x1="1525.2" y1="275.5" x2="1815.4" y2="275.5"/>
		<line class="st2" x1="1821.6" y1="275.5" x2="1827.6" y2="275.5"/>
	</g>
</g>
<line class="st6" x1="1885.8" y1="88.6" x2="1885.8" y2="444.9"/>
<g>
	<line class="st6" x1="1414.2" y1="88.3" x2="1414.2" y2="181.1"/>
	<line class="st6" x1="746.3" y1="88.3" x2="746.3" y2="181.1"/>
</g>
<g>
	<line class="st6" x1="1414.2" y1="369.8" x2="1414.2" y2="462.6"/>
	<line class="st6" x1="746.3" y1="369.8" x2="746.3" y2="462.6"/>
</g>
<line class="st2" x1="89.1" y1="26" x2="89.1" y2="150"/>
<line class="st2" x1="151.1" y1="26" x2="151.1" y2="150"/>
<line class="st2" x1="213.1" y1="26" x2="213.1" y2="150"/>
<line class="st2" x1="151.1" y1="398.6" x2="151.1" y2="524.6"/>
<line class="st2" x1="213.1" y1="398.6" x2="213.1" y2="524.6"/>
<line class="st2" x1="25.8" y1="149.7" x2="213.1" y2="149.7"/>
<line class="st2" x1="150.7" y1="398.6" x2="213.5" y2="398.6"/>
</svg>
